PathFileType	4	(X/Y/Z)	RBDS001\RBDS001runT45.trc
DataRate	CameraRate	NumFrames	NumMarkers	Units	OrigDataRate	OrigDataStartFrame	OrigNumFrames
150.000000	150.000000	5	33	mm	150.000000	2812	4500
Frame#	Time	L.ASIS			L.Heel.Bottom			L.Heel.Lateral			L.Heel.Top			L.Iliac.Crest			L.MT1			L.MT5			L.PSIS			L.Shank.Bottom.Lateral			L.Shank.Bottom.Medial			L.Shank.Top.Lateral			L.Shank.Top.Medial			L.Thigh.Bottom.Lateral			L.Thigh.Bottom.Medial			L.Thigh.Top.Lateral			L.Thigh.Top.Medial			R.ASIS			R.ASY			R.Heel.Bottom			R.Heel.Lateral			R.Heel.Top			R.Iliac.Crest			R.MT1			R.MT5			R.PSIS			R.Shank.Bottom.Lateral			R.Shank.Bottom.Medial			R.Shank.Top.Lateral			R.Shank.Top.Medial			R.Thigh.Bottom.Lateral			R.Thigh.Bottom.Medial			R.Thigh.Top.Lateral			R.Thigh.Top.Medial			
		X1	Y1	Z1	X2	Y2	Z2	X3	Y3	Z3	X4	Y4	Z4	X5	Y5	Z5	X6	Y6	Z6	X7	Y7	Z7	X8	Y8	Z8	X9	Y9	Z9	X10	Y10	Z10	X11	Y11	Z11	X12	Y12	Z12	X13	Y13	Z13	X14	Y14	Z14	X15	Y15	Z15	X16	Y16	Z16	X17	Y17	Z17	X18	Y18	Z18	X19	Y19	Z19	X20	Y20	Z20	X21	Y21	Z21	X22	Y22	Z22	X23	Y23	Z23	X24	Y24	Z24	X25	Y25	Z25	X26	Y26	Z26	X27	Y27	Z27	X28	Y28	Z28	X29	Y29	Z29	X30	Y30	Z30	X31	Y31	Z31	X32	Y32	Z32	X33	Y33	Z33	

2813	18.74666666666667	2384.052437574286	990.3854927871802	903.1585224028368	1873.741137658509	95.53560254795229	1069.181678550486	1895.917437535208	101.8679298899799	1022.921257041077	1897.624500513904	137.0919781794909	1067.021078072967	2335.472207382841	1066.911513873595	882.7280502624386	2088.686764240125	41.06229756432885	1061.296110028382	2033.96164820839	48.88731408740975	967.0608539813089	2228.545703942035	1051.147634663491	996.5045549534992	2014.961451870109	200.0113074397885	983.2796277222207	1982.700611247636	227.278783546224	1013.406341089888	2051.662602144729	266.2516439453337	956.2688684029954	2022.048050509739	297.4977676325302	988.2812252728104	2220.568812559633	602.3186105653339	895.3470869769625	2176.629010773498	611.7418809088864	953.2653491757561	2216.176675204074	711.4685733573086	878.1538746987864	2177.92726313258	720.8392852268444	934.526855498086	2401.517257654182	980.5712948292413	1112.013730076792	663017134.3415806	1218847424.146626	-1924935330.973657	2074.186771150909	437.6559772611242	1077.463514050482	2100.191119256795	425.7276350458318	1124.613066213064	2122.415632697569	445.9961300716485	1075.744072805611	2351.855731121178	1055.326970594258	1156.572830070222	2178.293150218095	237.5111343086854	1077.950598520277	2162.155364420676	274.9737027569603	1179.722259541312	2237.197177348317	1044.086934438519	1070.651943905388	2240.677221290164	436.013678285073	1134.681927176311	2225.924212444063	471.0041289785762	1095.799415075322	2310.40398709472	477.0236860386486	1143.34200137456	2295.277679421265	511.0501793973099	1104.390693874851	2524.340446764938	633.3528554434238	1159.007440226521	2480.555789491205	600.5517798406183	1109.033265958109	2445.293344999384	708.4530253389022	1176.742192987039	2401.129199934292	673.8353695332842	1133.710713771041	
2814	18.75333333333333	2386.082477267165	993.4011822847556	902.4380756477137	1850.12615312234	108.4230278750007	1067.582695932233	1872.427285361824	112.3785046319008	1021.05346947748	1876.349584689468	148.3027510183395	1064.30263096661	2339.648946726882	1070.910823025291	882.8597512583136	2059.638368454386	41.1725354455062	1060.447262256055	2005.742181797595	49.76051103907665	966.0634326756027	2230.95388277788	1056.138018487961	996.0144556391749	1992.472139462541	208.3341291874251	980.8868828042132	1960.91234171564	235.264360440439	1011.944832681164	2029.633338589871	274.7637289124491	954.8824388767129	2000.545745420743	305.6121416384296	987.6790693115003	2207.275909967866	609.1655933953117	895.2773507315693	2163.814208539329	620.7567182696993	953.1949381320081	2207.648062836316	718.3616570464051	877.8910748801733	2170.226955658346	729.6148634773699	934.4988928488608	2403.769217590341	987.3951464510941	1110.475485331369	663753363.5337888	1220206258.64771	-1927080982.879358	2091.710182976142	413.223845631523	1075.505815020228	2118.609293554065	403.9693636631729	1122.953412316613	2139.219347301685	425.3151430775144	1073.790239442809	2354.052803590265	1062.091279570559	1155.901432750329	2211.328175844714	221.2867052948844	1079.051410037635	2192.095555007786	258.9252432267873	1180.192104883046	2239.621617609082	1050.175257512539	1070.174138524383	2258.298759788435	424.5034361618655	1133.434374709525	2241.07297909903	458.1416973267105	1094.327878122195	2324.969007556434	470.5514598934947	1141.884778709568	2307.422389284456	503.1340619095352	1102.723756508297	2531.918911523654	644.4372060883222	1157.307565474205	2488.209380785926	610.786555047218	1107.64793155014	2451.420161862944	717.9209576018209	1175.991041844024	2407.960396140452	682.8967207440662	1132.623838822829	
2815	18.76	2388.536937813321	996.5322065844657	902.0343181104498	1828.536061152951	122.5859070845511	1065.793583798849	1850.66388921914	124.0152169410595	1019.009339058913	1857.18910447445	160.4432058768265	1061.29930862168	2344.116195751692	1074.870790163797	883.0557408186356	2031.432765220732	41.61893365839099	1059.281879681115	1978.170056447039	51.18760330398304	964.8640677346554	2233.626451004994	1061.13772164492	995.3999677816475	1971.408067411311	217.1651431316664	978.0805249848145	1940.595581569183	243.5991633110987	1010.196847497665	2008.880068459664	283.9191791742447	953.1850145837238	1980.344391665406	314.1996259969932	986.8982644573107	2194.850817967719	616.7992889834576	895.0351698580696	2151.888677982654	630.5343512671908	952.8869857904466	2199.925625617131	725.8201845309402	877.3988386107799	2163.383993046719	738.9043875574208	934.2108849342637	2406.08865804617	994.3594739392948	1109.173286142548	664490137.5303148	1221566102.720038	-1929228228.643902	2110.862170833103	388.4540264380514	1073.850753184734	2138.457667841491	381.5829790844385	1121.450112467772	2157.386353246993	404.1364138510854	1072.169130108475	2356.116367230778	1068.961193370272	1155.330852257905	2245.048371052791	205.7688262144243	1079.31965838912	2222.811631475963	242.8236979192182	1179.979929535595	2242.225189326198	1056.233485376726	1069.562864780663	2276.500960124329	412.4340243208391	1132.20063294823	2256.869541601901	444.5941710302108	1092.943547959547	2339.74525757299	463.2998805431615	1140.46574998665	2319.861368869311	494.3216118958877	1101.128378796932	2538.537504066344	654.8800520349373	1155.572700560595	2494.727779993586	620.4756711781332	1106.442165381286	2456.932250161851	727.09564766467	1175.166697502876	2414.00926046142	691.7258832616669	1131.628892048886	
2816	18.76666666666667	2391.357874874634	999.6985509953161	901.9891708400914	1809.066296995195	137.9095091885522	1063.767375286292	1830.695743531616	136.7239390006794	1016.751672040843	1840.161046345837	173.4114214712403	1057.994773239938	2348.774083529064	1078.734351986759	883.2986800953159	2004.179274417101	42.57725138833352	1057.768298920945	1951.330241734303	53.3681551047725	963.444867922597	2236.50108154148	1066.066340017775	994.6242830734415	1951.813397648109	226.4249394704967	974.8904640744056	1921.774309053383	252.2316272355232	1008.152648890257	1989.47744852604	293.6104352119279	951.1805471769201	1961.514154286161	323.1849384842145	985.9138934059745	2183.364641047759	625.090634621866	894.653601798158	2140.921152953084	640.9194149302735	952.3780546795583	2193.037426572916	733.7337828463693	876.7168624112948	2157.418078968818	748.5738631519845	933.7011144658536	2408.353090359284	1001.268772008417	1108.205025678821	665227456.5326545	1222926956.738513	-1931377068.859056	2131.644461269356	363.5211372867852	1072.571431403962	2159.785586234411	358.7222993728815	1120.172018696433	2176.93250363282	382.6187257515735	1070.938288554152	2357.922076757901	1075.751020313054	1154.884350086354	2279.369309337548	191.0440156420056	1078.721222132978	2254.364214216348	226.7183011501746	1179.084786054279	2244.912618078389	1062.123471887306	1068.791272183777	2295.324777347772	399.8660145326327	1131.019325628856	2273.368191132529	430.4464489069224	1091.696962675926	2354.792067123461	455.2781324589171	1139.143020039761	2332.675670768087	484.6498811316034	1099.663729210799	2544.207151332321	664.5249312579891	1153.835918746483	2500.114809090403	629.3816833577235	1105.523826517741	2461.818624199511	735.8276181025446	1174.233612878884	2419.228788166605	700.0976184136121	1130.784286584865	
2817	18.77333333333333	2394.460439043542	1002.832407214809	902.3046259534234	1791.696318937245	154.2596881979535	1061.453190445659	1812.511434044858	150.4359167565996	1014.240354197482	1825.167783488182	187.1078071342832	1054.381884215407	2353.518147818209	1082.457428831764	883.5640319716133	1977.944161746523	44.25375795663194	1055.901507031288	1925.304490374685	56.51616339885311	961.7972132440682	2239.501454204643	1070.846968454431	993.6711023525104	1933.683466547309	236.0580309094867	971.3795278396094	1904.414350582811	261.150367709467	1005.818703596057	1971.468151351802	303.7387202844662	948.8962919476943	1944.085832785883	332.5182384293336	984.7079030641374	2172.877848954392	633.881775505417	894.1853509810363	2130.975561748642	651.726763413694	951.7348212481335	2186.993174328265	741.9716358827181	875.9090303485995	2152.33053668438	758.4702801267401	933.0364698354357	2410.454316414817	1007.924425283558	1107.631752091096	665965320.7423036	1224288821.07804	-1933527504.116584	2154.024730881542	338.5718303178846	1071.680861935135	2182.602431752399	335.5480360275162	1119.144700039928	2197.835873765474	360.9059579890655	1070.104750213231	2359.383204889398	1082.274447064586	1154.570780287449	2314.212147163561	177.1880764247831	1077.257352638768	2286.793407646448	210.7022938060414	1177.526989908093	2247.586054464947	1067.712121559927	1067.852565022005	2314.783354507448	386.8718997229885	1129.913967845972	2290.591910843325	415.7903403381777	1090.618395945622	2370.143562353423	446.5161391354501	1137.961976396999	2345.916184471738	474.1708549631803	1098.377633192393	2548.927193864571	673.2143994192885	1152.133188279219	2504.368560447619	637.2792119311072	1104.984826746966	2466.059919354613	743.9580968048145	1173.163093079669	2423.57477118656	707.7968011949739	1130.133246240123	
